<?xml version="1.0" encoding="UTF-8"?>
<svg id="Layer_1" xmlns="http://www.w3.org/2000/svg" version="1.1" viewBox="0 0 500 500">
  <!-- Generator: Adobe Illustrator 30.3.0, SVG Export Plug-In . SVG Version: 2.1.3 Build 182)  -->
  <defs>
    <style>
      .st0 {
        fill: #234192;
      }
    </style>
  </defs>
  <path class="st0" d="M191.77,433.69h-4.17s-3.04-2.93-3.04-2.93l-49.16-132.85,1.94-12.93c.12-1.97-2.19-5.55-3.23-7.92l-6.24,7.95c-1.66,2.12-4.78,3.39-7.51,1.87-4.97-2.76-11.05-4.51-15.46-8.2s-6.73-9.66-10.14-14.11c-2-2.61-1.28-6.03,1.18-8.34l-8.68-4.56c-1.52-.8-2.19-4.41-1.63-6.2.42-1.37,2.12-3.2,3.87-3.83l23.78-8.52c.08-.87.26-3.05-.1-3.79l-8.06-16.6c-3.61-1.67-5.6-4.27-5.13-7.93l6.26-18.32c1-2.94,4.21-4.77,7.25-3.85l11.33,3.46,21.68-23.91c.09-1.35.21-4.03.83-5.15l12.38-22.45-15.01-16.36c-.78-.85-1.5-3.38-1.54-4.64l-.49-19.41-9.01-7.91c-2.85-2.5-2.61-7.44.72-9.45l16.2-9.79c1.43-.86,4.47-.92,6.05-.23l29.68,13.04,26.44-1.24,12.76,7.72c2.62,1.58,3.54,5.03,2.23,7.72l-12.57,25.88,3.06,5.47c.88,1.57,1.13,4.44.17,6.23-.72,1.34-2.95,2.44-5.02,3.23l9.47,14.46,6.3,2.37c2.58.97,4.1,4.02,3.39,6.74l-4,15.43,70.12,29.95,7.34-15.77c.69-1.49,2.87-3.14,4.24-3.38s3.98.43,5.06,1.31l17.46,14.24,9.08-.23c.13-3.31-.05-7.3,2.28-8.86l24.13-16.11c2.16-1.44,2.84-5.26,6.25-5.37l22.74-.67c1.87-.06,4.33,1.49,5.32,2.97l11.99,17.9c-.1,5.89-1.77,15.62-4.64,16.64l-18.62,6.66c-.07,3.9-1.39,6.96-4.26,9.57l-3.42,20.75c-.55,3.33-3.83,5.24-7,4.72l-4.88-.8-2.72,17.49c-.38,2.44-2.07,4.83-4.15,5.46-2.33.7-5.17-.2-6.64-2.21l-10.61-14.48-4.43.18c-2.14.09-4.61-1.18-5.6-2.91-.86-1.51-.98-4.52-.03-5.94l7.2-10.73c-2.53-.33-6.56-.33-8.42-1.5l-8.94-5.62-12.22,5.1,9.96,36.64c.53,1.95-.04,4.39-1.22,5.77-1.09,1.27-3.72,2.16-5.49,1.82l-10.73-2.06-7.73,6.02-1.09,8.41c-.19,1.44-1.9,3.68-3.3,4.45l-20.8,11.51c-1.42,3.31-2.42,7.21-4.56,9.77-4.79,5.72-10,11.27-16.54,13.56l-7.2,9.63c-2.36,3.15-12.36,1.68-13.81,5.96l-5.4,15.92,3.18,10.12-5.87,32.73-15.56,19.04c-1.24,1.52-2.04,5.78-4.01,6.58l-13.26,5.63ZM289.85,273.75c4.51-4.35,8.78-7.31,13.64-10.82,1.7-1.22,5.21-.53,7.78-.06l-8.94-33.06c-.72-2.68,1.38-5.61,3.61-6.54l19.86-8.27c5.17-2.15,10.72,5.22,15.58,6.6,8.47,2.41,17.37.09,19.36,5.67.54,1.52.29,4.11-.63,5.47l-6.49,9.6,5.83,7.16,1.81-10.46c.59-3.39,4.19-4.96,7.2-4.41l4.55.83,2.22-14.19c.35-2.21,1.57-4.26,3.06-6.24,2.95-3.91-.14-9.85,6.34-12.16l16.46-5.86c2.36-.84,1.02-4.84.03-6.28l-6.86-9.84-15.85.45c-1.35,1.77-2.73,3.39-4.34,4.41l-20.3,12.92-.68,7.02c-.37,3.82-2.76,6.4-6.87,6.35l-17.71-.2-14.95-11.97-6.7,14.3c-1.14,2.44-4.57,4.01-7.38,2.81l-80.42-34.31c-2.76-1.18-3.85-4.53-3.18-7.1l3.83-14.63c-1.28-.52-4.31-1.53-5.16-2.82l-15.57-23.72c-1.15-1.75-1.16-5.03.06-6.73.86-1.2,3.08-2.14,5.09-2.86-1.17-2.27-1.88-5.3-.76-7.63l11.42-23.52-5.15-3.13c-8.28-.04-16.94,1.67-25.22.89-10.54-3.43-20.02-8.72-30.33-12.74l-6.42,4.1c2.47,2.58,6.21,4.51,6.46,7.31.66,7.36.53,14.25.78,21.74l15.72,17.17c1.71,1.86,3,4.71,1.63,7.2l-13.96,25.43c-.16,1.95-.46,4.46-.97,6.22l-26.74,29.36c-1.72,1.31-4.32,1.88-6.25,1.25l-8.8-2.85-2.75,8.24c.77.88,2.32,2.4,2.77,3.36l9.21,19.42c.97,2.05.17,6.59.4,8.74.43,3.98-1.33,6.51-4.67,7.71l-13.79,4.96,5.36,2.94c1.49.82,2.84,3.25,2.88,5.07.04,1.62-1.43,4.15-2.85,4.95l-3.64,2.04,3.95,6.67,8.86,4.48,12.85-16.8c1.49-1.95,4.59-2.64,6.5-1.95,6,2.15,3.25,8.21,4.09,15.16.54,4.46,4.42,8.51,4.67,13.04s-1.24,8.49-1.88,12.95l45.55,123.08c3.45.62,4.34-2.34,6.14-4.6l14.29-17.94,4.8-27.07-3.4-10.88,7.74-23.33,6.32-4.45c2.86-2.01,6.14-2.69,9.7-3.17l7.62-9.8,6.96-3.4,7.35-7.41c2.7-2.72,1.91-9.69,8.65-13.4l18.55-10.22c.46-3.19-.16-8.13,2.06-10.27Z"/>
</svg>