<?xml version="1.0" encoding="UTF-8"?>
<svg id="Layer_1" xmlns="http://www.w3.org/2000/svg" version="1.1" viewBox="0 0 500 500">
  <!-- Generator: Adobe Illustrator 30.3.0, SVG Export Plug-In . SVG Version: 2.1.3 Build 182)  -->
  <defs>
    <style>
      .st0 {
        fill: #234192;
      }
    </style>
  </defs>
  <path class="st0" d="M268.01,429.51h-36c-23.09,0-41.87-18.68-41.87-41.97v-191.45c0-23.3,18.78-41.97,41.87-41.97h36c23.09,0,41.86,18.64,41.86,41.99v191.43c0,23.33-18.77,41.98-41.86,41.98ZM297.88,216.95v-15.46c-18.83-2.82-32.65-17.26-35.49-35.47l-24.83.06c-2.88,18.54-16.86,32.58-35.44,35.43v15.57c31.41-11.57,64.94-11.11,95.75-.14ZM225.15,167.09c-10.79,2.09-19.52,10.86-22.25,22.12,10.74-2.74,19.27-10.28,22.25-22.12ZM297.07,189.12c-2.85-11.57-11.33-19.54-22.32-22.28,2.73,11.21,11.17,19.74,22.32,22.28ZM276.52,261.83l18.8-32.99c-29.46-11.09-61.14-11.13-90.61.05l18.88,32.99,52.93-.05ZM214.08,303.73l.02-34.32-11.93-20.6-.1,54.98,12.01-.06ZM285.95,303.78h12s-.1-54.97-.1-54.97l-11.93,20.61.03,34.36ZM273.97,351.66v-77.83s-47.91,0-47.91,0v77.87s47.91-.04,47.91-.04ZM214.12,356.59l-.06-40.83h-11.96s-.01,67.42-.01,67.42l7.27,2.44,4.76-29.03ZM297.94,383l-.03-67.24h-11.96s-.03,41.16-.03,41.16l4.78,28.78,7.24-2.71ZM279.17,389.32l-4.31-25.66h-49.7s-4.3,25.73-4.3,25.73c19.08,5.32,39.26,5.44,58.31-.07ZM209.95,398.34l-6.45-1.78c2.85,8.14,7.89,14.68,16.11,17.99l-9.66-16.22ZM280.56,414.42c8.43-3.37,13.13-9.87,15.95-17.91l-6.76,2.22-9.18,15.68ZM264.77,417.49l8.32-14.29c-15.95,2.95-30.19,2.8-46.2.03l8.6,14.39,29.28-.14Z"/>
  <path class="st0" d="M140.47,383.33l-8.48,8.49c-45.16-45.24-45.13-118.72.17-163.86l8.62,8.29c-40.58,40.37-41.07,106.27-.31,147.08Z"/>
  <path class="st0" d="M359.58,383.32c40.7-40.82,40.23-106.71-.32-147.05l8.52-8.36c45.11,44.66,45.65,118.53.28,163.88l-8.48-8.46Z"/>
  <path class="st0" d="M317.78,110.5c-37.25-37.15-97.66-37.59-135.29-.16l-8.61-8.31c41.55-41.78,110.01-42.29,152.18-.14l-8.27,8.6Z"/>
  <path class="st0" d="M158.4,365.36l-8.47,8.5c-35.35-35.52-35.35-92.64-.02-128.16l8.59,8.33c-30.54,30.62-31.05,80.23-.11,111.34Z"/>
  <path class="st0" d="M341.64,365.37c30.65-30.93,30.64-80.3,0-111.19l8.29-8.59c35.3,35.03,35.7,92.59.17,128.21l-8.47-8.43Z"/>
  <path class="st0" d="M299.8,128.42c-27.47-27.18-71.51-27.65-99.34-.13l-8.59-8.32c31.77-31.86,83.81-32.33,116.22-.13l-8.29,8.59Z"/>
  <path class="st0" d="M176.33,347.41l-8.32,8.56c-25.3-25.23-25.77-66.42-.14-92.3l8.46,8.46c-20.72,21.14-20.7,54.14,0,75.28Z"/>
  <path class="st0" d="M323.65,347.56c20.4-20.96,21.06-54.04.02-75.42l8.34-8.55c25.35,25.21,25.68,66.44.19,92.25l-8.55-8.28Z"/>
  <path class="st0" d="M281.72,146.32c-17.99-17.51-45.46-17.41-63.3-.07l-8.58-8.33c21.89-21.92,57.71-22.46,80.29-.11l-8.41,8.51Z"/>
</svg>