<?xml version="1.0" encoding="UTF-8"?>
<svg id="Layer_1" xmlns="http://www.w3.org/2000/svg" version="1.1" viewBox="0 0 500 500">
  <!-- Generator: Adobe Illustrator 30.3.0, SVG Export Plug-In . SVG Version: 2.1.3 Build 182)  -->
  <defs>
    <style>
      .st0 {
        fill: #234192;
      }

      .st1 {
        fill: #f5b817;
      }
    </style>
  </defs>
  <circle class="st0" cx="250" cy="250" r="238"/>
  <g>
    <path class="st1" d="M424,325.75c0,8.56-5.53,15.7-14.19,15.8l-13.94.16c-6.06,10.42-16.91,16.7-28.63,16.8-12.04.1-23.11-6.16-29.32-16.84h-110.06c-6.2,10.74-17.19,16.87-28.95,16.85-11.76-.03-22.75-6.08-28.86-16.8h-15.59c-6.21,10.6-17.06,16.79-28.82,16.8-11.78.01-22.81-5.98-28.98-16.75l-15.79-.14c-2.67-.02-4.88-2.26-4.88-4.98v-40.1c.26-3.25,2.69-4.74,5.67-4.76l27.31-.18-30.96-25.35c-1.06-.87-2.02-2.77-2.02-4.29v-62.67c0-2.82,2.21-4.88,4.88-4.98l12.49-.05c2.78-9.1,9.39-15.76,18.75-18.52,1.2-16.54,16.12-28.42,32.72-25.12,4.42-5.83,10.81-8.89,17.51-9.11,7.24-.24,13.95,2.74,18.88,8.69,15.64-2.08,29.86,8.8,31.14,24.97,7.84,1.73,14.28,5.96,18.74,13.49l29.69-39.84c.89-.81,2.74-1.8,3.96-1.8h49.33c2.9.01,5.06,2.19,5.06,5.05v24.72c.23,3.02-2,5.55-5.09,5.55h-25.03s0,109.46,0,109.46l20.38-.04v-90.84c.39-2.97,2.45-4.67,5.41-4.67l65.44.03c6.2,0,11.41,3.14,14.66,8.17l26,40.14c1.83,2.83,3.02,6.18,3.02,9.68l.07,71.51ZM222.69,194.3c-3.03-6.69-9.19-9.44-15.64-9.76-3.06-.15-4.89-2.72-4.58-5.67.63-6.1-1.97-11.73-6.18-15.13-10.04-8.1-18.38.22-21.5-5.4-2.55-4.6-6.91-6.98-11.79-6.98-11.31,0-10.86,11.98-17.67,9.63-6-2.07-12.13-1.11-16.96,2.82-4.32,3.53-6.92,9.3-6.22,15.4.31,2.69-1.72,5.12-4.38,5.47-5.84.76-10.83,3.55-13.8,9.6h118.72ZM279.14,218.48v-40.88c.02-2.78,1.92-4.82,4.64-5.14h25.47s0-15.58,0-15.58l-42.21.03-33.47,44.95c-.92,1.24-2.45,1.98-4.16,2.32H85.9s.03,14.31.03,14.31h193.22ZM414.1,326.75v-74.5s-28.23-43.69-28.23-43.69c-1.62-1.4-3.4-2.2-5.6-2.48l-61.01.04v125.69s14.96-.08,14.96-.08c-4.07-21.16,12.04-40.08,33.02-39.9,20.68.19,36.45,18.99,32.38,39.9l9.61.07c2.68.02,4.87-2.32,4.87-5.05ZM116.64,267.57v-39.23s-30.8,0-30.8,0l.06,31.7,9.34,7.54,21.4-.02ZM157.27,267.57l-.03-39.24h-30.72s-.02,39.28-.02,39.28l30.77-.04ZM197.9,267.57v-39.24s-30.77.03-30.77.03v39.25s30.77-.04,30.77-.04ZM238.54,267.57v-39.23s-30.79,0-30.79,0v39.27s30.79-.04,30.79-.04ZM279.17,267.57l-.04-39.23h-30.72s-.01,39.28-.01,39.28l30.77-.04ZM279.06,291.77v-14.32s-171.55.03-171.55.03l17.27,14.3h154.28ZM92.8,331.66c-2.11-11.73,1.43-21.78,8.93-29.99l-15.86-.05v30.16s6.93-.12,6.93-.12ZM123.18,301.81c-13.67,1.41-22.62,13.56-20.9,26.52,1.65,12.45,13.11,21.64,25.98,20.14,12.57-1.46,22.08-12.86,20.62-25.89-1.37-12.28-12.33-22.15-25.69-20.77ZM166.2,331.62c-2.15-11.84,1.5-21.67,8.86-29.96h-25.79c7.93,8.4,11.05,18.84,8.97,30.13l7.96-.17ZM196.44,301.82c-13.58,1.47-22.44,13.7-20.79,26.38,1.65,12.66,13.18,21.74,25.98,20.27s22.14-13.01,20.63-26.03c-1.42-12.28-12.49-22.07-25.83-20.63ZM309.4,331.78v-30.14s-86.6,0-86.6,0c7.54,8.3,11.08,18.84,8.81,30.16l77.79-.03ZM364.77,301.79c-13.56,1.25-22.57,13.16-21.18,25.97s12.8,22.05,25.69,20.75,22.22-12.54,21.03-25.56-12.04-22.42-25.54-21.17Z"/>
    <path class="st1" d="M392.16,252.48l-50.35.03c-2.5,0-5.02-2.19-5.02-4.71l-.02-26.67c0-2.55,2.26-4.79,4.8-4.79l33.12-.02c1.53,0,3.48,1.26,4.39,2.45l17.22,26.57c.25,1.21.33,3.42-.05,4.44-.41,1.09-2.41,2.69-4.09,2.7ZM382.63,242.56l-10.43-16.36-25.58-.02.05,16.48,35.96-.1Z"/>
    <path class="st1" d="M197.12,317.98c4.37-1.09,8.05,1.75,8.96,5.16,1.12,4.2-1.4,8.14-5.24,9.16s-7.69-1.14-8.94-4.83c-1.27-3.76.68-8.36,5.22-9.49Z"/>
    <path class="st1" d="M124.13,317.88c4.17-.8,7.68,1.96,8.57,5.41,1.08,4.19-1.63,8.01-5.19,8.99-4.32,1.18-8.19-1.53-9.15-5.3-1.04-4.11,1.51-8.28,5.77-9.1Z"/>
    <path class="st1" d="M364.83,318.05c4.42-1.26,8.38,1.44,9.32,5.39.87,3.66-1.34,7.71-4.99,8.77-4.06,1.18-8.04-.81-9.37-5.06-1.03-3.3.63-7.84,5.04-9.1Z"/>
  </g>
</svg>