<?xml version="1.0" encoding="UTF-8"?>
<svg id="Layer_1" xmlns="http://www.w3.org/2000/svg" version="1.1" viewBox="0 0 500 500">
  <!-- Generator: Adobe Illustrator 30.3.0, SVG Export Plug-In . SVG Version: 2.1.3 Build 182)  -->
  <defs>
    <style>
      .st0 {
        fill: #234192;
      }

      .st1 {
        fill: #f5b817;
      }
    </style>
  </defs>
  <circle class="st0" cx="250" cy="250" r="238"/>
  <g>
    <path class="st1" d="M153.84,125.68c7.13.9,12.25,5.37,17.26,10.43l18.49,18.67c17.38-10.87,37.02-16.47,57.53-16.47h105.97c.7-5.53,5.12-8.7,10.53-8.69s10.14,2.95,10.68,8.74l.04,53.31c0,6.32-4.59,10.12-10.75,10.04-5.3-.07-9.95-3.08-10.45-8.74l-12,.11c5.25,9.43,9.1,18.72,11.45,29.08h4.27c6.87,0,12.55,5.25,12.55,12.29v24.76c0,7.23-6.02,12.24-13.03,12.25h-3.84c-2.7,11.79-7.31,22.62-13.58,32.74l3.67,3.76c4.33,4.44,4.46,12.08-.07,16.62l-17.67,17.72c-4.92,4.94-12.6,4.51-17.42-.19l-3.17-3.09c-10.23,6.44-20.98,10.78-32.69,13.59v4.23c.02,6.92-5.32,12.6-12.38,12.59l-24.8-.04c-6.44-.01-11.72-5.34-11.93-11.6l-.18-5.26c-10.45-2.42-19.82-6.15-29.25-11.49l-.07,12.01c5.68.78,8.57,5.11,8.6,10.62.02,5.14-3.09,10.56-8.96,10.57l-54.27.06c-5.99-.66-8.82-5.52-8.7-11.13.11-5.21,3.13-9.56,8.71-10.19v-106.86c.02-20.29,5.81-39.68,16.36-56.7l-18.85-18.59c-5.01-4.94-9.26-10.02-10.21-17.01l.17-6.22c1.52-11.41,10.03-19.8,21.28-21.83l6.71-.12ZM165.74,138.45c-7.87-9.31-21.16-9.88-29.22-1.67s-7.24,21.21,1.75,28.91c7.51,6.44,18.89,5.6,25.88-1.29,6.91-6.81,8.11-18.24,1.59-25.95ZM369.13,191.42l-.06-53.06c0-2.82-3.43-3.46-5.36-3.51-3-.07-5.43,1.31-5.43,4.46v52.38c0,1.4.69,3.13,1.52,3.67,2.06,1.34,5.99,1.33,7.98-.17.73-.55,1.35-2.17,1.35-3.77ZM271.49,193.11c21.77,10.35,35.09,31.86,34.43,55.58s-14.97,44.23-36.8,53.02c-22.67,9.13-48.38,3.85-65.31-13.86s-21.28-43.08-10.97-65.64c9.45-20.67,30.58-34.44,54.37-34.42l71.16.05v-44.36s-72.75.08-72.75.08c-34.29.04-66.4,17.99-85.14,46.53-17.11,26.06-21.4,58.53-12.16,88.24,5.3,17.03,15.05,31.85,27.83,43.85,32.19,30.23,79.74,36.62,118.4,16.4,53.09-27.75,71.7-94.58,40.36-145.64l-63.42.17ZM353.09,187.84v-44.34s-29.56,0-29.56,0v44.35s29.56,0,29.56,0ZM157.76,185.18c7.78-11.15,16.55-19.89,27.36-27.5l-9.81-9.76c1.43,15.94-11.45,28.81-27.42,27.4l9.87,9.87ZM245.61,192.95c-30.25.72-53.65,26.03-52.7,55.66.94,29.62,25.7,53.06,55.36,52.27,29.83-.79,53.35-25.52,52.57-55.48-.77-29.31-25.15-53.16-55.22-52.44ZM364.28,258.55v-23.63c0-3.39-1.98-7.03-5.59-7.23l-4.95-.28c2.3,13.24,2.27,25.68,0,38.65l4.49-.04c3.75-.04,6.06-3.68,6.06-7.47ZM165.23,318.29c-9.99-11.44-16.62-23.73-21.59-37.57l-.11,37.66,21.69-.09ZM321.55,338.28l17.47-17.7c2.34-2.37,2.06-6.69-.07-8.93l-2.84-3c-7.55,10.64-16.56,19.64-27.5,27.32l2.74,2.71c2.78,2.75,7.29,2.54,10.2-.41ZM187.8,337.8c-6.7-4.33-12.22-8.9-17.69-14.28h-26.57s0,29.56,0,29.56h44.29s-.03-15.28-.03-15.28ZM259.52,364.24c3.45,0,6.55-2.77,6.61-5.81l.1-4.81c-13.19,2.3-25.69,2.29-38.61-.03-.1,1.55-.17,3.46.12,5.08.61,3.46,3.81,5.63,7.17,5.62l24.61-.05ZM192.88,369.07c2.95,0,3.58-3.44,3.52-5.39s-.76-5.28-3.37-5.28l-54.19-.04c-2.95,0-3.99,2.81-3.98,5.28s.91,5.48,3.94,5.47l54.07-.04Z"/>
    <path class="st1" d="M166.88,246.26c-.01,1.91-.93,2.88-2.22,3.19-.91.21-2.93-.61-2.94-1.98-.24-21.95,8.02-42.88,22.94-58.87,1.07-1.15,2.74-1.12,3.82-.21.86.73,1.16,2.56.13,3.67-13.75,14.68-21.58,33.75-21.73,54.2Z"/>
    <path class="st1" d="M247.36,332.21c-1.91.02-2.93-1.09-3.03-2.39-.12-1.51.99-2.78,2.77-2.79,15.14-.09,29.61-4.28,42.37-12.29,1.35-.85,3.25-.09,3.71,1.13.53,1.42-.04,2.74-1.44,3.59-13.39,8.15-28.32,12.62-44.36,12.76Z"/>
    <path class="st1" d="M321.8,210.94c5.75-.4,10.08,3.99,10.54,8.96.53,5.69-3.75,10.34-8.88,10.82-5.64.52-10.24-3.52-10.86-8.7-.66-5.53,3.33-10.66,9.2-11.07ZM321.36,216.25c-2.89.74-4.12,3.5-3.31,6.13.66,2.14,3.16,3.66,5.64,3s3.99-3.06,3.42-5.6c-.52-2.32-2.86-4.27-5.75-3.53Z"/>
    <path class="st1" d="M202.34,180.31c-1.25.8-2.83.53-3.56-.29-.85-.96-.91-2.98.26-3.74,4.85-3.2,9.52-5.8,14.89-8.06,1.09-.46,2.77.73,3.04,1.61.38,1.2-.22,2.89-1.43,3.4-4.71,1.97-8.72,4.23-13.19,7.09Z"/>
    <path class="st1" d="M276.3,214.71c18.19,16.53,18.07,44.9,1.54,62.01-16.9,17.48-45.57,18.09-62.5.2-16.03-16.94-15.1-43.63.87-59.98,15.95-16.33,42.69-18.05,60.1-2.22ZM239.76,236.12l4.45-1.92.07-25.79c-8.62.7-16.37,3.85-22.78,9.48l18.25,18.23ZM254.08,235.94l18.1-18c-6.46-5.55-14.3-8.81-22.68-9.35v25.62s4.58,1.73,4.58,1.73ZM234.14,244.23l1.8-4.56-18.03-18.14c-5.64,6.42-8.94,14.19-9.35,22.72l25.58-.02ZM259.7,244.29l25.64-.03c-.64-8.64-3.94-16.42-9.48-22.7l-18.06,18.17,1.89,4.56ZM254.28,244.93c-1.19-4.47-6.03-6.53-10.16-5.13s-5.75,5.94-4.48,9.63c1.36,3.96,5.5,5.98,9.48,4.76,3.6-1.11,6.31-4.92,5.15-9.26ZM236.12,253.97l-1.91-4.46-25.63-.07c.58,8.49,3.77,16.22,9.45,22.78l18.09-18.25ZM275.94,272.28c5.78-6.82,8.7-14.45,9.6-22.65l-25.83.03-1.83,4.58,18.07,18.03ZM244.13,285.32l-.1-25.66-4.42-1.95-18.08,18.11c6.35,5.56,14.1,8.98,22.6,9.5ZM249.52,285.34c8.89-.66,16.51-4.01,22.66-9.46l-18.16-18.05-4.52,1.67.02,25.84Z"/>
    <path class="st1" d="M149.91,138.09c7.29-.36,12.74,5.26,13.1,11.73.39,6.98-4.98,12.71-11.49,13.17-7.06.5-12.84-4.8-13.39-11.4-.57-6.94,4.5-13.13,11.78-13.5ZM154.78,156.44c3.18-2.18,3.62-6.37,2.02-9.25-1.69-3.02-5.26-4.52-8.69-3.42-4.33,1.39-5.92,6.25-4.09,9.98s6.87,5.35,10.77,2.68Z"/>
  </g>
</svg>