<?xml version="1.0" encoding="UTF-8"?>
<svg id="Layer_1" xmlns="http://www.w3.org/2000/svg" version="1.1" viewBox="0 0 500 500">
  <!-- Generator: Adobe Illustrator 30.3.0, SVG Export Plug-In . SVG Version: 2.1.3 Build 182)  -->
  <defs>
    <style>
      .st0 {
        fill: #234192;
      }
    </style>
  </defs>
  <path class="st0" d="M105.76,207.43c-2.8.46-5.6-.09-7.45-1.63s-3.04-4.21-3.02-6.72l.08-12.47c.02-3.65,2.59-7.15,6.51-7.84l175.57-30.85c5.34-.94,10.23,2.22,10.26,7.8l.05,12.9c.02,4.58-3.41,7.48-7.55,8.21l-12.59,2.19v59.98s28.1-.04,28.1-.04v-123.7c.37-3.64,2.81-7.69,6.67-7.68l27.48.02c3.96,0,6.52,4.38,6.52,8.19v123.17s18.01.05,18.01.05V88.26c0-3.85,2.56-8.21,6.51-8.21l27.53-.03c3.51,0,6.62,4.02,6.62,7.7l.02,151.06,5.7.32c4.38.24,8.06,3.6,8.06,8.22v143.21c5.43-.83,11.08,1.96,11.12,7.42l.11,13.78c.03,4.49-3.57,8.23-8.39,8.23H88.42c-5.23,0-8.56-4.15-8.46-8.91l.29-13.7c.12-5.47,6.35-7.85,11.89-6.67l.02-80.81c0-3.05,2.2-4.97,5.01-4.97h18.33s.01-99.1.01-99.1l-9.76,1.61ZM385.43,98.58v-9.04s-21.4,0-21.4,0v9.07s21.4-.03,21.4-.03ZM385.42,238.95V108.21s-21.4.11-21.4.11v130.65s21.4-.01,21.4-.01ZM326.75,126.13l-.04-9.06h-21.39s.06,9.07.06,9.07h21.36ZM326.74,238.89v-103.13s-21.4,0-21.4,0v103.22s21.4-.1,21.4-.1ZM278.09,167.37v-9.75s-173.08,30.38-173.08,30.38l.15,9.75,172.93-30.38ZM209.38,246.21c.6-4.46,3.55-7.07,7.63-7.24h40.93s-.02-58.27-.02-58.27l-132.76,23.3-.02,100.91h84.23s0-58.71,0-58.71ZM399.18,390.46v-141.85s-180.16,0-180.16,0v141.86s180.16,0,180.16,0ZM187.74,330.24c4.94,0,7.91,4.3,7.91,8.48v51.75s13.73-.04,13.73-.04v-75.87s-107.59,0-107.59,0v75.85s13.72.08,13.72.08v-51.74c0-4.91,3.61-8.55,8.58-8.55l63.65.04ZM150.77,390.48v-50.6s-25.62-.02-25.62-.02v50.61s25.62.02,25.62.02ZM186.02,390.43v-50.58s-25.61.01-25.61.01v50.63s25.61-.07,25.61-.07ZM410.3,410.34l.02-10.22H89.74s0,10.22,0,10.22h320.56Z"/>
  <path class="st0" d="M375.54,307.46l-20.85.05c-4.58.01-8.64-3.52-8.64-8.27l.02-21.41c0-4.12,3.67-7.88,7.88-7.89l21.4-.04c4.48,0,8.26,3.72,8.26,8.23l-.03,21.4c0,4.21-3.7,7.92-8.04,7.93ZM373.98,297.86v-18.33s-18.31,0-18.31,0v18.31s18.31.01,18.31.01Z"/>
  <path class="st0" d="M375.75,367.72h-21.81c-4.26.02-7.88-3.84-7.88-8v-21.4c0-4.69,4.04-8.13,8.54-8.12l20.78.02c4.23,0,8.17,3.36,8.18,7.81l.06,21.42c.01,4.08-3.27,8.25-7.88,8.26ZM374,358.09l-.02-18.25-18.32.06.03,18.25,18.31-.06Z"/>
  <path class="st0" d="M264.01,307.48l-21.4-.02c-4.7,0-8.05-4.15-8.05-8.58l.03-20.8c0-4.2,3.41-8.13,7.87-8.13l21.32-.04c5.04,0,8.42,4.13,8.39,8.89l-.11,20.74c-.02,4.18-3.68,7.95-8.06,7.95ZM262.49,297.85v-18.32s-18.27,0-18.27,0v18.31s18.27,0,18.27,0Z"/>
  <path class="st0" d="M319.78,307.48l-21.41-.02c-4.69,0-8.07-4.14-8.06-8.58l.03-20.8c0-4.21,3.43-8.13,7.88-8.14l21.37-.05c4.48,0,8.28,3.72,8.28,8.23l-.03,21.4c0,4.17-3.72,7.95-8.06,7.95ZM318.26,297.81l-.02-18.28h-18.27s0,18.34,0,18.34l18.3-.06Z"/>
  <path class="st0" d="M264.22,367.72h-21.76c-4.54,0-7.88-4.01-7.88-8.25v-20.75c-.01-4.87,3.69-8.52,8.54-8.51l20.75.02c4.22,0,8.19,3.34,8.2,7.83l.07,21.4c.01,4.13-3.27,8.26-7.92,8.26ZM262.5,358.08l-.02-18.23-18.26.02v18.27s18.28-.05,18.28-.05Z"/>
  <path class="st0" d="M319.98,367.72h-21.76c-4.53,0-7.89-4-7.89-8.25v-20.75c-.01-4.87,3.71-8.52,8.55-8.51l20.75.02c4.23,0,8.18,3.33,8.19,7.83l.06,21.41c.01,4.12-3.25,8.26-7.9,8.26ZM318.25,358.08l-.02-18.24-18.26.02v18.27s18.29-.05,18.29-.05Z"/>
  <path class="st0" d="M166.44,293.91h-21.7c-4.35,0-7.92-3.86-7.92-8.12l.03-21.45c0-4.31,3.76-7.96,7.98-7.96l21.16-.03c4.92,0,8.42,3.92,8.41,8.67l-.06,20.76c-.01,4.03-3.39,8.12-7.89,8.12ZM164.74,284.29l-.02-18.31-18.28.05.06,18.29,18.25-.03Z"/>
  <path class="st0" d="M166.52,246.08l-21.15.07c-4.88.02-8.57-3.73-8.57-8.57v-20.75c.02-4.24,3.38-8.21,7.91-8.22l21.38-.06c4.57-.01,8.28,3.76,8.27,8.31l-.05,21.42c0,3.96-3.53,7.79-7.79,7.81ZM164.74,236.43l-.02-18.26h-18.27s.01,18.32.01,18.32l18.28-.06Z"/>
</svg>