<?xml version="1.0" encoding="UTF-8"?>
<svg id="Layer_1" xmlns="http://www.w3.org/2000/svg" version="1.1" viewBox="0 0 500 500">
  <!-- Generator: Adobe Illustrator 30.3.0, SVG Export Plug-In . SVG Version: 2.1.3 Build 182)  -->
  <defs>
    <style>
      .st0 {
        fill: #234192;
      }

      .st1 {
        fill: #f5b817;
      }
    </style>
  </defs>
  <circle class="st0" cx="250" cy="250" r="238"/>
  <g>
    <path class="st1" d="M100.63,296.09v-120.2c1.74-6.46,7.14-12.24,14.69-12.24h269.37c8.32,0,14.68,7.16,14.68,15.17v114.31c0,8.19-6.42,15.05-14.55,15.12l-13.58.11v-9.33s13.51-.1,13.51-.1c3.01-.02,5.26-2.92,5.27-5.71l.02-12.85-9.97-.13c-7.95-.1-13.82-7.28-13.35-14.74.47-7.55,6.73-13.28,14.53-13.22l8.79.07v-14.01s-28.58-.08-28.58-.08c-5.37-.02-8.81-4.9-8.8-9.81l.04-32.17c0-5.15,4.12-9.3,9.3-9.3h28.01s.04-7.63.04-7.63c.02-3.43-2.14-6.38-6-6.38H115.94c-3.48,0-5.97,2.54-5.97,5.88v73.44s9.38.05,9.38.05c8,.04,14.12,6.65,13.95,14.27s-6.54,13.85-14.54,13.78l-8.78-.08-.04,12.33c-.01,3.43,2.21,6.36,5.88,6.37l12.93.02v9.36s-14.11-.15-14.11-.15c-7.1-.08-12.36-5.84-14.01-12.13ZM390.04,228.97v-32.66s-28.01,0-28.01,0v32.69s28.01-.03,28.01-.03ZM119.62,270.94c3.12-.03,4.67-3.07,4.28-5.38-.42-2.46-2.45-3.94-5.15-3.93l-8.78.04v9.36s9.66-.1,9.66-.1ZM390.05,270.98v-9.3s-8.79-.05-8.79-.05c-3.11-.02-5.36,2.03-5.21,4.97.13,2.64,2.3,4.46,5.21,4.44l8.79-.07Z"/>
    <path class="st1" d="M166.54,271.31c18.34-2.31,34.22,10.75,36.49,28.27,2.31,17.89-10.45,34.24-28.3,36.5-17.67,2.23-33.96-10.17-36.43-27.84-2.48-17.7,9.72-34.6,28.24-36.93ZM167.13,280.65c-13.33,2.04-21.62,14.46-19.46,27,2.16,12.51,13.98,21,26.49,19.07,12.69-1.95,21.51-13.84,19.54-26.58s-13.4-21.51-26.57-19.5Z"/>
    <path class="st1" d="M325.25,271.31c18.34-2.31,34.22,10.75,36.49,28.27,2.31,17.89-10.45,34.24-28.3,36.5-17.67,2.23-33.96-10.17-36.43-27.84-2.48-17.7,9.72-34.6,28.24-36.93ZM325.83,280.65c-13.33,2.04-21.62,14.46-19.46,27,2.16,12.51,13.98,21,26.49,19.07s21.51-13.84,19.54-26.58c-1.92-12.41-13.4-21.51-26.57-19.5Z"/>
    <path class="st1" d="M165.98,228.99h-32.67c-2.61,0-4.67-2.06-4.67-4.67v-32.68c0-2.61,2.05-4.67,4.67-4.67h32.67c2.62,0,4.67,2.05,4.67,4.67v32.67c0,2.61-2.06,4.67-4.67,4.67ZM161.31,219.64v-23.33s-23.35,0-23.35,0v23.35s23.35-.03,23.35-.03Z"/>
    <path class="st1" d="M221.99,228.99h-32.67c-2.61,0-4.67-2.06-4.67-4.67v-32.68c0-2.61,2.05-4.67,4.67-4.67h32.67c2.62,0,4.67,2.05,4.67,4.67v32.67c0,2.61-2.06,4.67-4.67,4.67ZM217.33,219.64v-23.33s-23.35,0-23.35,0v23.35s23.35-.03,23.35-.03Z"/>
    <path class="st1" d="M278.01,228.99h-32.67c-2.61,0-4.67-2.06-4.67-4.67v-32.68c0-2.61,2.05-4.67,4.67-4.67h32.67c2.62,0,4.67,2.05,4.67,4.67v32.67c0,2.61-2.06,4.67-4.67,4.67ZM273.34,219.64v-23.33s-23.35,0-23.35,0v23.35s23.35-.03,23.35-.03Z"/>
    <path class="st1" d="M334.02,228.99h-32.67c-2.61,0-4.67-2.06-4.67-4.67v-32.68c0-2.61,2.05-4.67,4.67-4.67h32.67c2.62,0,4.67,2.05,4.67,4.67v32.67c0,2.61-2.06,4.67-4.67,4.67ZM329.36,219.64v-23.33s-23.35,0-23.35,0v23.35s23.35-.03,23.35-.03Z"/>
    <path class="st1" d="M289.85,257h-112.11c-2.87,0-4.61-2.12-4.73-4.41-.13-2.54,1.66-4.93,4.72-4.93h111.86c2.85,0,4.61,2.09,4.71,4.39s-1.25,4.62-4.46,4.95Z"/>
    <polygon class="st1" points="287.43 308.35 212.52 308.35 212.53 299.01 287.47 299.01 287.43 308.35"/>
    <path class="st1" d="M306.61,248.03c2.7-1.05,5.23.4,6.07,2.56.94,2.42-.2,5.14-2.61,6.08-2.22.87-4.79-.07-5.88-2.2-1.14-2.22-.4-5.34,2.42-6.44Z"/>
    <path class="st1" d="M167.73,290.03c7.91-1.73,14.99,3.47,16.59,10.72,1.66,7.52-3.26,14.97-10.75,16.6-7.35,1.6-14.65-3.01-16.49-10.31-1.86-7.37,2.59-15.24,10.65-17.01ZM168.92,299.36c-2.83,1.12-3.57,4.23-2.43,6.45s3.66,3.06,5.89,2.19c2.4-.94,3.54-3.66,2.6-6.08-.84-2.15-3.38-3.63-6.06-2.57Z"/>
    <path class="st1" d="M326.44,290.03c7.91-1.73,14.99,3.47,16.59,10.72s-3.26,14.97-10.75,16.6c-7.35,1.6-14.65-3.01-16.49-10.31-1.86-7.37,2.59-15.24,10.65-17.01ZM327.62,299.36c-2.83,1.12-3.57,4.23-2.43,6.45s3.66,3.06,5.89,2.19c2.4-.94,3.54-3.66,2.6-6.08-.84-2.15-3.38-3.63-6.06-2.57Z"/>
  </g>
</svg>