<?xml version="1.0" encoding="UTF-8"?>
<svg id="Layer_1" xmlns="http://www.w3.org/2000/svg" version="1.1" viewBox="0 0 500 500">
  <!-- Generator: Adobe Illustrator 30.3.0, SVG Export Plug-In . SVG Version: 2.1.3 Build 182)  -->
  <defs>
    <style>
      .st0 {
        fill: #234192;
      }

      .st1 {
        fill: #f5b817;
      }
    </style>
  </defs>
  <circle class="st0" cx="250" cy="250" r="238"/>
  <g>
    <path class="st1" d="M256.02,246.83l.03-16.54c0-1.69.77-3.74,1.88-4.64,1.44-1.16,3.75-1.46,5.54-.62,10.27,4.83,16.78,14.85,17.59,25.61.88,11.64-4.42,22.46-14.62,28.92l-.1,15.45,10.83-5.72c2.15-1.14,5.06-.29,6.35,1.56,6.01,8.61-18.41,16.6-31.51,17.01-33.62,1.07-60.93-26.25-59.86-59.86.41-13.01,8.33-37.53,17.04-31.51,1.86,1.28,2.92,4.36,1.54,6.4-4.98,7.36-8.03,15.32-8.3,24.36-.62,20.71,11.4,40.84,31.35,47.48l-.19-15.14c-9.98-6.47-15.11-17.05-14.45-28.49.62-10.71,6.94-20.68,17-25.89,1.51-.79,3.69-.85,5.17-.09,1.36.69,2.66,2.85,2.66,4.62l.03,16.95,5.99,3.96,6.05-3.81ZM233.39,240.65c-7.66,9.96-4.54,22.9,4.61,29.64,3.7,2.37,5.92,6.23,5.93,10.6l.04,16.48,12.08-.02.02-16.42c0-4.8,2.54-8.26,6.26-10.98,9.41-6.87,11.61-20.31,4.03-29.76l-.08,9.35c-.01,1.23-1.21,3.41-2.26,4.11l-11.28,7.51c-1.41.94-4.04.94-5.45,0l-11.27-7.51c-1.12-.75-2.15-2.8-2.26-4.14l-.36-8.87Z"/>
    <path class="st1" d="M163.49,336.97c2.32,2.31,1.12,5.89-.48,7.18-2.68,2.16-5.41,1.47-7.76-.94-36.51-37.43-48.29-92.31-28.77-142.14,17.49-44.64,59.8-77.93,108.89-82.99,2.26-7.6,9.47-12.01,16.82-11.05s12.9,7.13,13.33,14.31c.46,7.74-4.66,14.17-11.7,15.96-7.62,1.94-14.69-2.23-18-9-34.53,3.96-65.71,22.76-85.71,50.89-34.73,48.83-29.18,115.38,13.37,157.77ZM248.11,117.53c-3.09,1.2-3.89,4.63-2.65,7.06s4.02,3.36,6.44,2.41c2.64-1.03,3.89-4.01,2.85-6.66-.92-2.36-3.68-3.95-6.64-2.8Z"/>
    <path class="st1" d="M264.74,381.92c-2.47,7.44-9.2,11.79-16.36,11.11s-13.15-6.75-13.85-13.79c-.78-7.85,4.22-14.41,11.2-16.41,7.49-2.15,15.16,1.71,18.3,8.83,45.14-4.68,84.23-35.71,100.16-76.92,17.97-46.47,6.61-97.23-27.59-131.69-2.11-2.13-1.42-5.05-.16-6.59,1.68-2.06,5.14-2.83,7.36-.6,37.02,37.11,49.28,92.12,30.08,142.16-17.24,44.92-59.39,78.63-109.14,83.92ZM248.11,373.03c-3.1,1.23-3.91,4.63-2.66,7.07,1.2,2.33,4,3.35,6.44,2.4,2.63-1.03,3.88-4.01,2.85-6.66-.92-2.36-3.7-3.97-6.63-2.81Z"/>
    <path class="st1" d="M341.66,260.88l.39-19.88c.01-.7-1.23-1.89-1.92-1.83-5.77.58-11.42-2.54-12.96-8.11-2.23-8.06-5.39-15.33-9.35-22.62-3.06-5.62-.12-11.67,4.71-15.86l-15.28-15.14c-4.43,5.71-10.84,7.65-16.57,4.38-6.58-3.75-13.37-6.65-20.73-8.61-6.74-1.79-10.07-7.76-9.15-15.11h-21.6c.89,7.07-2.13,13.04-8.65,14.94-6.94,2.03-13.77,4.37-19.92,8.17-6.22,3.85-13.13,1.95-17.79-3.49-2.68,1.87-5.96,2.1-7.99-.19-1.83-2.06-1.59-5.37.64-7.25,6.01-5.09,13.21-1.67,17.74,2.92,8.34-3.98,16.81-8.25,25.83-10.42-1.18-8.11,4.17-14.91,11.98-14.94l17.28-.09c8.06-.04,13.86,6.55,12.59,15,9.16,2.53,17.45,5.92,25.81,10.73,2.84-3.15,6.3-5.27,9.83-5.5,4.38-.28,7.66,1.64,10.64,4.62l10.85,10.85c2.86,2.86,4.43,6.28,4.1,10.32-.29,3.6-2.52,6.73-5.65,9.49,4.84,8.38,8.23,16.68,10.76,25.84,8.44-1.3,15.03,4.52,14.99,12.58l-.08,17.28c-.04,7.79-6.92,13.2-14.91,11.93-2.56,9.36-6.13,17.62-10.8,26.09,5.84,4.07,7.3,11.08,3.91,16.73-1.85,2.96-5.1,3.46-7.57,1.76-2.77-1.91-2.33-5.42-.59-8.34-4.61-3.95-7.54-10.29-4.23-16.04,3.95-6.88,6.86-13.98,9.01-21.65,1.7-6.07,7.14-9.51,14.67-8.57Z"/>
    <path class="st1" d="M307.17,322.39c2.57-2.08,5.58-2.11,7.67-.23,1.77,1.59,2.24,4.97.26,6.93-5.68,5.62-13.71,2.96-18.31-2.44-8.38,4.34-16.83,8.28-25.8,10.56.35,4.5-.51,8.03-3,10.89s-6.18,4.18-10.32,4.16l-16.65-.09c-8.06-.05-13.06-7.17-12.07-15.05-9.35-2.38-17.45-5.93-25.67-10.58-5.8,6.62-13.97,7.44-19.83,1.51l-12.36-12.52c-5.5-5.57-3.67-14.13,2.31-18.59-4.73-8.42-7.83-16.64-10.59-25.89-7.45.95-14.89-3.62-14.92-11.46l-.07-18.54c-.03-7.81,6.86-13.17,14.94-11.96,2.29-9.07,6.3-17.5,10.55-25.87-5.07-4.58-8.05-12.19-2.71-17.99,1.97-2.14,4.96-2.15,6.99-.43,2.33,1.97,2.05,5.33.07,8.04,5.77,4.56,7.47,11.52,3.55,17.8-3.6,5.77-6.06,12.3-7.81,18.91-1.86,6.98-7.66,10.59-15.35,9.64l.03,21.6c7.02-.84,13.14,2.13,14.93,8.65,2.11,7.7,5.14,14.72,8.98,21.65,3.09,5.59.93,11.96-4.55,16.1,5.02,5.41,9.94,10.32,15.34,15.35,4.18-5.53,10.49-7.62,16.12-4.55,6.61,3.6,13.28,6.79,20.66,8.62,6.98,1.73,10.65,7.72,9.6,15.3l21.71-.15c-1.04-7.53,2.52-13.16,9.06-14.99s13.17-4.15,19.02-7.77c6.34-3.92,13.41-2.55,18.21,3.38Z"/>
    <path class="st1" d="M289.22,277.29c8.89-13.66,11.25-30.31,5-45.37-11.07-26.66-45.57-39.02-71.3-21.21-2.21,1.53-5.51-.03-6.63-1.96s-.97-4.99,1.26-6.58c24.2-17.25,57.21-11.62,76.69,10.62,12.94,14.78,16.77,34.82,11.17,53.59-2.4,8.04-7.04,20.57-13.76,17.6-2.07-.92-4.16-4.04-2.43-6.69Z"/>
  </g>
</svg>